<svg xmlns="http://www.w3.org/2000/svg" viewBox="0 0 41.68 56.57"><defs><style>.cls-1{fill:#1d1d1b;}</style></defs><title>pupille-ecran2Fichier 13</title><g id="Calque_2" data-name="Calque 2"><g id="Calque_1-2" data-name="Calque 1"><path class="cls-1" d="M23.3.31,4.38,6.24C-.07,7.64-2.07,15,3,17.21L6.5,18.79l1.43-11-.7.2A6.09,6.09,0,0,0,3,15.4,74.43,74.43,0,0,0,32.76,55.59c4.71,3.2,9.71-2.06,8.82-6.77A423.82,423.82,0,0,0,30.68,4.5C28.44-2.87,16.85.27,19.11,7.69A421.28,421.28,0,0,1,30,52l8.82-6.78a61.33,61.33,0,0,1-24.2-33l-4.2,7.39.7-.21c4.54-1.3,6.37-8.77,1.44-11L9,6.85l-1.43,11,18.92-5.94C33.83,9.57,30.69-2,23.3.31Z"/></g></g></svg>