<svg xmlns="http://www.w3.org/2000/svg" viewBox="0 0 152.36 160.05"><defs><style>.cls-1{fill:#1d1d1b;}</style></defs><title>ecran6-patteduchatFichier 25</title><g id="Calque_2" data-name="Calque 2"><g id="Calque_2-2" data-name="Calque 2"><path class="cls-1" d="M132,.78c-1.27,12-19.65,17.26-29.33,20.28-10.28,3.22-20.82,5.56-31.28,8.13-20.23,5-41.8,11.9-55.92,28.14C1.82,73-2.91,95,1.73,115.09c4.71,20.33,20.82,39.81,42.35,42.83,12,1.68,24.82-2.31,32.58-11.93,8.41-10.43,9.22-23.92,8.23-36.73a3.61,3.61,0,0,0-7.21,0c-1.12,10-2.14,21.92-8.54,30.13S51.29,150,41.56,147.23c-19.66-5.48-31.07-26.4-31.64-45.74C9.36,82.35,18,64.59,34,53.89s35.7-14.6,53.94-20c10.52-3.09,21-6.82,30.62-12.13,7.48-4.13,17.85-11.31,15-21.23A.8.8,0,0,0,132,.78Z"/><path class="cls-1" d="M71.53,114.62a3.5,3.5,0,0,0,2.88.17,4.31,4.31,0,0,0,2.33-2.21,1.26,1.26,0,0,0-.19-1.47l-.07-.07a1.08,1.08,0,0,0-1-.27l-.1,0a1.22,1.22,0,0,0-.84.85,2.9,2.9,0,0,1-2.79,2.18.43.43,0,0,0-.21.79Z"/><path class="cls-1" d="M77.38,113.11c10.17-9.82,21-18.53,33.41-25.39S136.28,77,149.51,72.36c4.12-1.44,3.77-8.25-1.08-8-15.08.74-29.7,7.3-42.12,15.7-12.25,8.27-23.07,19-30.47,31.87a1,1,0,0,0,1.54,1.19Z"/><path class="cls-1" d="M31.22,140a97.12,97.12,0,0,0,9.55,18.41c1.73,2.59,5.72.32,4.21-2.46A97.84,97.84,0,0,0,33.1,138.92c-.71-.82-2.3.06-1.88,1.1Z"/><path class="cls-1" d="M48.14,143.32c5.91,6.24,11.61,12.35,19.3,16.37a2.87,2.87,0,0,0,3.47-4.49c-5.82-6.45-13.16-10.44-20.67-14.6a1.74,1.74,0,0,0-2.1,2.72Z"/><path class="cls-1" d="M68,133.84c4.47,7.65,11,14.76,19.52,17.66,3.22,1.09,4.92-3.6,2.24-5.32-6.9-4.41-13.94-8-19.92-13.76A1.18,1.18,0,0,0,68,133.84Z"/></g></g></svg>