<svg xmlns="http://www.w3.org/2000/svg" viewBox="0 0 283.85 112.3"><defs><style>.cls-1{fill:#1d1d1b;}</style></defs><title>dizy-debutFichier 1</title><g id="Calque_2" data-name="Calque 2"><g id="Calque_1-2" data-name="Calque 1"><path class="cls-1" d="M26.36,41.62c-3.07-6.78-6.95-16.41-12.86-21.11C10.29,18,4.82,20,5.62,24.42A1,1,0,0,0,3.89,25c-5.65,29.56-10,71.53,23.33,86.69,4.11,1.87,8.07-.4,8.52-4.89,1.52-15.13,1.73-29.49-2-44.39A122.42,122.42,0,0,0,26.36,41.62ZM18.13,88.77a48.48,48.48,0,0,1-6.32-15.48c-3.58-15.24-4.61-31.38-5.64-47C8.36,32.36,13,37.93,15.79,43.73a109.73,109.73,0,0,1,7.48,20.64c2.61,10.31,3.94,21.82,2.76,32.7A34.13,34.13,0,0,1,18.13,88.77Z"/><path class="cls-1" d="M281.4,46.79c-3.21-15.65-10.16-32.69-20.65-44.91-4.47-5.21-12.46,1.46-9.28,7.16,3.64,6.51,7.89,12.55,11.06,19.35a98.25,98.25,0,0,1,6.8,20,84.42,84.42,0,0,1,1.56,29.16c-.22,1.85-.26,6.68-1.76,8-4.07,3.61-7.22-9.53-8.08-11.93a186.22,186.22,0,0,1-5.92-21C251.73,37.8,251.79,23,250.9,7.92c0-.56-.86-.9-1.14-.31-6.08,12.76-7.48,28.19-6.43,42.13a108.85,108.85,0,0,0,3.89,22c1.93,6.71,4,14.45,7.74,20.42,7,11.29,23.82,7.54,26.89-4.85C285,74.44,284.05,59.65,281.4,46.79Z"/></g></g></svg>