<svg xmlns="http://www.w3.org/2000/svg" viewBox="0 0 2021.55 980"><defs><style>.cls-1{fill:#1d1d1b;}</style></defs><title>ecran3-chatFichier 17</title><g id="Calque_2" data-name="Calque 2"><g id="Calque_1-2" data-name="Calque 1"><path class="cls-1" d="M127.65,583.65C150.8,638.36,190.39,697.17,252.26,711c27.62,6.17,60.22,2.74,79.84-19.8,20.79-23.86,20.3-57.88,11.67-86.68-5.42-18.11-14-35.15-22.94-51.7-4.56-8.39-9.36-16.68-14.51-24.72-6.5-10.17-15-22.58-28.69-21.38-7.31.64-11.5,5.21-12.38,12.38-1.27,10.34,6.13,18.49,13.11,25.14a189.16,189.16,0,0,1,16,17,179.19,179.19,0,0,1,23.49,37.82c9.93,21.53,16.87,50.62,4.11,72.42-12.19,20.84-38.23,25.91-60.51,22.24-26.62-4.38-50.53-19.3-70.7-36.67-24.42-21-44.13-47.31-61.16-74.53a1.13,1.13,0,0,0-1.94,1.14Z"/><path class="cls-1" d="M389.56,423.64c11.78,21.79,28,42.05,48.92,55.75a137.81,137.81,0,0,0,72.28,22.33c25.44.33,51.18-10.32,62.53-34.33,9.86-20.86,9.55-45.8.77-67-6-14.37-14.9-27.06-25.28-38.59a241.4,241.4,0,0,0-34.84-32.19c-9.31-6.89-19.81,7.82-12.1,15.69,8.53,8.7,18.19,16.25,26.72,25,7.83,8,15,16.61,20.72,26.31,9.65,16.41,13.79,35.83,8.38,54.2-13.26,45-73.22,31.36-104.86,16.2-22.92-11-44.43-24.8-60.09-45.23-1.39-1.82-4.31-.29-3.15,1.84Z"/><path class="cls-1" d="M384.06,555.37c3.06-3.16,6.78-5.64,9.92-8.8,2.67-2.69,5.28-5.41,7.74-8.29a111.51,111.51,0,0,1,7.6-8.64c4.42-4.15,8.15-3.19,11.91,1a49.68,49.68,0,0,1,10.52,19.64,51.25,51.25,0,0,1,1.78,10.21c.24,3.41-.51,7.11.57,10.35a2.7,2.7,0,0,0,4.88.64c3.94-6.82.66-19.08-1.78-26-2.89-8.21-7.77-17.37-14.92-22.66s-14.39-1.3-19.61,4.65c-3.47,3.94-6.87,8-10,12.18-1.68,2.25-3.39,4.51-5,6.83-1.76,2.59-2.93,5.49-4.8,8-.52.69.59,1.51,1.17.91Z"/><path class="cls-1" d="M451.16,596.88c9,14.19,9.59,31.8,3.89,47.35-5.5,15-18,27-32.45,33.61-4.09,1.87-1.11,8,3,7,36.81-8.75,49.85-61,28.36-89.6-1.2-1.59-3.88-.16-2.76,1.61Z"/><path class="cls-1" d="M456.62,591.89a28.21,28.21,0,0,0,31.43,12.35c12.79-3.59,21.79-16.52,20.58-29.75-.32-3.57-5.46-3.67-5.62,0-.48,10.46-6.88,20.93-17.18,24.3-9.82,3.22-21.15-.33-28-7.81a.75.75,0,0,0-1.17.91Z"/><path class="cls-1" d="M477.61,654.83c.34.62.12,1.79.19,2.49a15.55,15.55,0,0,0,1.29,4.12c1.17,2.77,2.63,5.41,4,8.11,2.73,5.56,5.5,11.12,8.49,16.56,2.14,3.9,8.48,2.16,8.39-2.27a39.07,39.07,0,0,0-6.21-20.53,34.45,34.45,0,0,0-6.71-8c-2.09-1.71-5.19-2-6.77-3.14s-3.49,1.06-2.62,2.63Z"/><path class="cls-1" d="M495.4,637.51c9,4.62,16.19,11.82,23.44,18.77,2,1.94,5.53-.56,4-3.07-6-9.72-16-14.79-26.74-17.33-.94-.22-1.62,1.15-.68,1.63Z"/><path class="cls-1" d="M508.81,617.48c8.51-4.22,23.52-.32,30.11,6.13,3.82,3.73,9.07-1.79,5.77-5.77-4.68-5.65-11.49-9.62-18.9-10.05s-13,3.41-18.4,7.85c-1.08.89.3,2.4,1.42,1.84Z"/><path class="cls-1" d="M134.36,430.6c-8.18-5-17.76-8.17-26.81-11.22a205.9,205.9,0,0,0-29.08-7.82c-9.88-1.79-19.84-3.19-29.85-4-8.9-.75-19-2.31-27.78,0-17.5,4.63-21,27-20.83,42.34.2,17.86,6.51,34.62,14.32,50.43a215.78,215.78,0,0,0,15.37,25.9c6.1,9,12,17.75,21.45,23.4,4.37,2.6,10.85-1.76,9-6.93-2.82-8-7.38-13.93-12.61-20.44-5-6.2-9.71-12.61-14.09-19.24-8.74-13.21-15.66-27.35-18.3-43.09a65.06,65.06,0,0,1,0-21.79c1-5.8,2.45-14.38,8.74-16.7,3.29-1.21,7.19-.8,10.62-.67q7.06.28,14.12.86c8.78.72,17.56,1.63,26.27,3,9.68,1.47,19.37,2.78,29,4.49s19.51,4.41,29.37,5.56c2.24.26,2.77-3,1.09-4Z"/><path class="cls-1" d="M337.34,300.29a676.4,676.4,0,0,1-34.59-113.12l-4.12,5.4c20.78,2.06,40.49,9.74,57.87,21.21a128.17,128.17,0,0,1,23.05,19.55c7.18,7.71,12.58,16.64,19.26,24.72,2.56,3.11,8-.22,6.74-3.92-3.57-10.48-10.87-19.35-18.35-27.38a139.39,139.39,0,0,0-25.7-21.53A135.39,135.39,0,0,0,298.63,184c-2.89-.24-4.69,2.91-4.11,5.41a546.93,546.93,0,0,0,39.39,112.29c.91,1.89,4.23.53,3.43-1.44Z"/><path class="cls-1" d="M281.07,186.73a207.58,207.58,0,0,0-3.5,32.53c-.43,11.32.29,22.78.89,34.09.58,11,1.62,22,2.84,33s1.74,22.79,6.4,33.09c2,4.34,7.56,1.51,8-2.17,1.27-10.84-1.55-22.07-2.79-32.86-1.27-11-2.28-22-3.23-33-1.87-21.64-2.53-43.22-6-64.67a1.34,1.34,0,0,0-2.57,0Z"/><path class="cls-1" d="M113.48,459.75a181.92,181.92,0,0,0-32.7-21.51,184.64,184.64,0,0,0-17.1-7.71c-6.1-2.37-12.66-5.31-19.3-4.35-3.92.57-3.47,5.73-1,7.54,4.71,3.43,11.44,4.09,16.94,5.67,5.92,1.72,11.77,3.59,17.54,5.76a225.73,225.73,0,0,1,34.19,16.44c1.12.64,2.48-1,1.42-1.84Z"/><path class="cls-1" d="M129.71,788.86c-1.05,1.24-1.61.92-3.28,1.47a37.78,37.78,0,0,0-5.56,2.75,96.68,96.68,0,0,1-10.41,5.14,98.7,98.7,0,0,1-23.13,5.44c-7,.87-8.37,9.51-1.64,12.15,10.23,4,21.49,2.23,30.8-3.28a37.07,37.07,0,0,0,11.16-9.8,21.12,21.12,0,0,0,3.31-6.56c.6-1.92.23-4.12,1-5.6s-1.1-3-2.21-1.71Z"/><path class="cls-1" d="M139,815.33c-13,11.23-20.24,27.17-24.19,43.54-2,8.29,9.27,10.82,12.39,3.42,5.87-13.95,13.53-27.11,19.53-41,2.18-5-3.3-9.81-7.73-6Z"/><path class="cls-1" d="M171.24,843.66c.58,4.68.29,9.16,1.47,13.79,1.12,4.38,2.52,8.71,4,13a164.47,164.47,0,0,0,12,26.07c2.55,4.52,9.83,1.49,8.4-3.54a165.16,165.16,0,0,0-10.06-26.9c-2-4-4.05-8.11-6.38-12-2.47-4.08-5.84-7-8.75-10.72a.43.43,0,0,0-.72.3Z"/><path class="cls-1" d="M598,306.78c1.71-1.22,4-1.24,5.85-2.52a35.11,35.11,0,0,0,5.07-4.1,44.34,44.34,0,0,0,7.76-11.05,38,38,0,0,0,2.64-27.9c-1.93-7.17-12.83-5.68-12.89,1.74a111,111,0,0,1-2.35,21.66,61.74,61.74,0,0,1-3,10.13c-.7,1.76-1.29,3.53-2.08,5.25-.53,1.14-1.42,4.87-2,5.54s.16,1.82,1,1.25Z"/><path class="cls-1" d="M624.47,312.36c3.8,2.17,6.31,5.32,10.84,6.09a35.74,35.74,0,0,0,14.53-.32c10.57-2.59,17.52-9.63,20.84-19.84a7.61,7.61,0,0,0-4.42-9c-3.8-1.53-7.18,0-9.54,3.13-3.19,4.21-8.6,8.3-13.1,11a29.15,29.15,0,0,1-7.7,3.36c-3,.78-6.91,2.75-10,2.13-2.06-.42-3.46,2.38-1.49,3.51Z"/><path class="cls-1" d="M642.16,348.39c7.13,3.81,14.63,7.77,22.94,8A28.94,28.94,0,0,0,688.21,346a5.18,5.18,0,0,0-6.24-8.1,117.49,117.49,0,0,1-18.36,7.41c-6.85,2.13-13.61,3.69-20.58,1-1.2-.46-2,1.46-.87,2.05Z"/><path class="cls-1" d="M451.55,763.83c46.05-3.38,91.24-21.44,130.62-45A355.25,355.25,0,0,0,685,626.16a360.83,360.83,0,0,0,61.12-131.54,356.27,356.27,0,0,0,9.56-72.25c.78-27.94-2.07-55.78-3.58-83.64-1.53-28.42-1.84-57.11,4.49-85A148.79,148.79,0,0,1,769.29,218c6-11.5,14.51-21.36,22.34-31.61,2.46-3.22.82-8.44-2.13-10.64-3.48-2.61-7.57-2-10.83.64-9.27,7.67-14.94,17.44-20.35,28a172.8,172.8,0,0,0-12.2,31.71c-6.47,22.91-8.36,46.89-8,70.62.42,27.89,3.76,55.64,5.21,83.48,1.31,25.18.74,50.38-3.08,75.33-14.44,94.55-67.61,180.83-146.65,235a353.62,353.62,0,0,1-67.84,36.43c-24.21,9.74-49.44,16.57-74.77,22.71-2.32.56-1.89,4.42.57,4.24Z"/><path class="cls-1" d="M796.33,227.2c1.19-3.83,4.95-8.2,7.25-11.55a86.55,86.55,0,0,1,8.81-10.07c5.69-6,15.47-10.62,17.89-19a5.94,5.94,0,0,0-4.09-7.21c-11.34-3-21,9.15-26.12,17.62-2.77,4.58-4.05,9-5.17,14.17a38.5,38.5,0,0,0-1.14,7.69c0,2.73,1,5.36.91,8.1a.85.85,0,0,0,1.66.22Z"/><path class="cls-1" d="M823.3,235.38a58.9,58.9,0,0,1,10.75-11.61c3.48-2.93,9.12-6.14,9.94-11,.38-2.22-.56-4.9-3.07-5.42-6.63-1.35-12.08,4.8-15.25,9.92A41.65,41.65,0,0,0,820,234.48c-.26,1.92,2.44,2.19,3.32.9Z"/><path class="cls-1" d="M682,317.37c4.15-10.83,5.11-23.55,5-35.07a176.07,176.07,0,0,0-4.26-36.17c-5.48-24.5-15-47.84-22.94-71.59C646.09,133.75,632.44,80.31,662,42.8a72.92,72.92,0,0,1,24.72-20.18c9.87-4.9,20.44-5.53,31.14-6.91,7.55-1,8.92-10.14,1.77-13.08-20.16-8.29-45,4.49-59.89,17.75-17.71,15.75-27.4,37.88-30.42,61.09-6.85,52.52,20,100.16,36.94,148,4.94,13.95,9.4,28.33,12,42.92,2.69,15.1,2.26,29.51,1.42,44.7-.08,1.41,1.86,1.47,2.3.31Z"/><path class="cls-1" d="M707.63,39.67c2.8-1.69,7.79-.79,10.88-.6a45.33,45.33,0,0,0,11.57-.52c3.66-.65,4.08-5.31,2-7.67-3.94-4.54-9.55-5.68-15.25-4.1a17.4,17.4,0,0,0-7,3.72c-1.92,1.71-3.05,4-4.84,5.78a2.17,2.17,0,0,0,2.61,3.39Z"/><path class="cls-1" d="M714.29,68.36c4.06-2,8.86,1.9,12.24,3.64,2.67,1.37,5.58,2.45,8.41.78,3-1.78,3.64-5.87,2.09-8.8-2.85-5.37-9.08-6.82-14.67-5.89-4.9.82-7.57,4.22-10.25,8.09-1,1.41.88,2.83,2.18,2.18Z"/><path class="cls-1" d="M816.27,308.48c-.43,29.29,4.18,58.88,10.54,87.41,6.55,29.31,16.81,57.46,25.71,86.09,8.46,27.17,15.1,54.56,17.71,83a365.79,365.79,0,0,1-1.79,82.74,332.37,332.37,0,0,1-9.3,45.28q-3.14,11.13-7,22.06c-2.7,7.64-5.91,15.28-6.14,23.46-.11,3.86,5.1,6.1,7.76,3.22,9.2-10,12.38-25.64,15.84-38.47a399.35,399.35,0,0,0,8.93-41.77A368.9,368.9,0,0,0,866.66,494c-8.86-28.7-21-56.3-29.56-85.11-9.85-33-15.06-66.5-19.64-100.55-.09-.69-1.19-.5-1.19.17Z"/><path class="cls-1" d="M828.6,753.51c2.81,7.15,5.83,13.73,11.79,18.94,6.46,5.65,13.19,8.54,21.76,8.67,4.05.07,6.31-6.34,2.2-8.12-11.65-5-25.79-10.39-34.19-20.4-.58-.7-1.9,0-1.56.91Z"/><path class="cls-1" d="M814.21,775.61c1.63,1.65,2.86,5.7,3.84,7.83a60.87,60.87,0,0,1,3,8.26,94,94,0,0,1,3.77,17.44c.37,4,6.12,5.27,7.27,1a30.73,30.73,0,0,0-1.61-21.58,34.08,34.08,0,0,0-5.78-8.37,27.58,27.58,0,0,0-4-3.48c-1.48-1.05-3.68-1.46-5.05-2.55-1-.81-2.41.48-1.46,1.46Z"/><path class="cls-1" d="M799,790.42c.81,6.28,1.08,12.5,2.35,18.73,1.36,6.66,3.37,13.1,5.37,19.58,1.17,3.78,6.64,2.21,5.88-1.62-1.26-6.34-2.49-12.66-4.32-18.86s-4.63-12.06-7-18.14c-.43-1.11-2.48-1.11-2.3.31Z"/><path class="cls-1" d="M769.13,812.57c-5.78,9.52-12.62,18.57-17.91,28.36-2.5,4.63-5,9.27-7.33,14s-5.37,9.42-4.18,14.92c.63,2.9,4.09,3.88,6.47,2.63,4.71-2.47,6.28-7.88,8.28-12.51,2.14-5,4.19-10,6.19-15.05,4.06-10.25,6.56-21.19,10.11-31.64.33-1-1.12-1.53-1.63-.69Z"/><path class="cls-1" d="M716.5,115.78c-.67,18.66,3.7,37.55,9.56,55.18a195.16,195.16,0,0,0,10.46,25.36c4,8,8.23,18.49,16.24,23.24,3.59,2.13,7.19-1.37,6.54-5-1.53-8.64-8.72-16.41-13-23.95s-8.17-15.33-11.66-23.25c-7.35-16.69-11.68-34.3-16.5-51.78a.85.85,0,0,0-1.66.22Z"/><path class="cls-1" d="M851.26,479.89c3.72-.14,7.48-.62,11.2-.48,3.91.14,7.43.65,11.3.07A229.37,229.37,0,0,0,896.54,475c15.22-3.87,30-10.1,44.18-16.72,28.75-13.39,55.57-30.34,82.54-46.94,56.49-34.77,113.52-68.94,172.44-99.48,58.35-30.24,118.86-56.58,182-75.22,60.73-17.94,123.86-28.25,187.26-28.22,62.42,0,124.9,10.42,182.88,33.93,7.27,2.95,14.3,5.74,21.81,8,7,2.14,10.59-7.65,4.82-11.43-13.3-8.73-28.59-14.07-43.58-19.25a455.13,455.13,0,0,0-44.68-12.91,521.65,521.65,0,0,0-94.33-13c-63.42-3-127.31,4.7-188.81,20.16-64,16.07-125.64,40.79-184.84,69.7-59.68,29.14-116.87,62.83-173.16,98-53.9,33.67-107.49,73.49-170.14,89A92.06,92.06,0,0,0,864.26,474c-4.21,1.59-8.54,2-13,2.53-2.11.23-2.21,3.46,0,3.38Z"/><path class="cls-1" d="M1210.05,499.38c46.59-44.78,106.15-74.35,168.78-89,73.11-17.11,149.32-14,223.39-5.56,70.4,8,144.76,24.15,212.32-5.76,26.81-11.86,50.7-31.11,66.15-56.23,18.5-30.07,20.9-65.79,20.21-100.2s-5-70.4,5-104c7.87-26.5,28-50.89,55.58-56.11a60.63,60.63,0,0,1,7.89-.6c3.81-.21,6.06-.72,10.84-.65a11.29,11.29,0,0,0,11.12-9.82c.69-5.87-2.68-10.42-8.11-12.42-31.59-11.63-65.37,11.59-83.67,35.93-21.54,28.65-25.23,66.25-24.46,101s6.52,69.49.81,104.16c-2.62,15.92-7.89,31-16.83,44.51-7.83,11.8-19,21.62-30.67,29.45-60.43,40.36-136,29.64-204,21.32-76-9.31-153.67-14.09-229.41.38-61.93,11.83-126.18,37.54-171,83.26-5.67,5.79-11.06,11.84-16.21,18.09-1.3,1.58.76,3.76,2.29,2.29Z"/><path class="cls-1" d="M1955.8,114.51c.87-.52,3.31-.54,4.61-.9,2.23-.62,4.34-1.56,6.54-2.26a96.29,96.29,0,0,1,13.54-2.81c9-1.51,18.67,1.55,27.39-1.86,3.82-1.49,6.32-5.71,3.92-9.64-7.31-12-24-10.85-35.69-7.17a42.56,42.56,0,0,0-16,9.74,26.52,26.52,0,0,0-5.09,6c-1,1.83-1.28,4.75-2,6.09a2.08,2.08,0,0,0,2.82,2.82Z"/><path class="cls-1" d="M1977.45,132.28c11.87-8.13,26.48-.69,38.54,2.49,4,1.07,6.7-3.16,5.08-6.61-4.13-8.85-14.61-12-23.64-10.79a34.34,34.34,0,0,0-12.16,3.94c-4,2.17-6.59,5.38-9.53,8.76-1,1.13.31,3.17,1.71,2.21Z"/><path class="cls-1" d="M1781.12,242c.63-9.55-.49-19.21-1-28.75s-.91-19.25-.75-28.89c.32-18.49,2.45-37,8.95-54.43a140.35,140.35,0,0,1,20.5-36.66,94.89,94.89,0,0,1,15.58-15.58c5.15-4,12.73-8.45,18.18-13.35,4-3.56,4.5-10.21,1.89-14.66-2.85-4.87-8.34-6.56-13.65-5.56-13.42,2.54-24.65,13.22-33.21,23.39A126.36,126.36,0,0,0,1777.06,102c-10.77,26.53-11,58.2-8,86.21,1.86,17.86,4.13,37.16,10.71,54a.71.71,0,0,0,1.39-.18Z"/><path class="cls-1" d="M1842.55,87.2c4.59-4.47,11.11-6.83,16.65-9.84,5.71-3.11,10.76-5.52,15.55-10.07,3.36-3.19,1-10-4-9.61-8.13.67-13.56,4-19.2,9.81-5.22,5.33-7.42,11.86-10.94,18.23a1.22,1.22,0,0,0,1.91,1.48Z"/><path class="cls-1" d="M1868.26,101.47c1.3-2.68,4.31-4,6.81-5.37,1.56-.87,3.26-1.45,4.85-2.2a37.71,37.71,0,0,0,5-3.06,5.77,5.77,0,0,0-2.89-10.66,14.71,14.71,0,0,0-13.82,7.67,16.22,16.22,0,0,0-2.19,6.59c-.2,2.15.15,4.29.09,6.47a1.13,1.13,0,0,0,2.1.56Z"/><path class="cls-1" d="M1872,115.14c-2.47,7.09-4.58,14.26-7.38,21.25-2.72,6.78-5.8,13.41-8.63,20.14a166.09,166.09,0,0,0-7.15,20.37c-1.79,6.48-3.74,13.42-3.15,20.2,1.14,13.1,6.81,25.52,15,35.7,8.74,10.88,19.74,17.87,32.52,23.16,4.26,1.76,6.82-5,3.07-7.29A102.47,102.47,0,0,1,1868.54,224c-7.56-9.81-11.28-20.55-12.67-32.75-1.54-13.59,3.46-25.83,8.51-38.17,4.82-11.76,11.15-24.5,10.6-37.49a1.5,1.5,0,0,0-2.94-.4Z"/><path class="cls-1" d="M858,892.16c47.77,14.55,96.51,25.33,145.26,36.14s97.45,21.27,146.54,30c92.35,16.45,187.12,26.09,280.94,19.7,88.9-6.06,177.2-25.15,257.84-63.76,73.91-35.39,138.51-87.54,187.52-153.28a440.62,440.62,0,0,0,57.32-103.37c14.22-36.46,22.73-74.4,22.08-113.65-.16-9.6-.78-19.16-1.8-28.71-1.13-10.66-16.19-11-16.87,0-2.31,37.21-10.18,74.9-21.3,110.45-11.08,35.4-27.29,68.4-47.91,99.81C1825.51,789.64,1766.57,842,1699,878.61c-75,40.59-159.35,63.15-243.88,72.19-91.37,9.78-182.72,4.82-273.69-6.55C1084.26,932.11,989,910.11,892.73,893c-11.33-2-22.81-3-34.24-4.33-2.06-.24-2.33,2.93-.48,3.5Z"/><path class="cls-1" d="M151.05,409.12c-2.79-13.84,7.72-27.78,18.11-35.56,12.23-9.14,26.93-14.31,39.94-22.18,12.67-7.66,23.85-19.72,28.11-34.21,4.59-15.62.23-40.34-20.33-40.08a11.81,11.81,0,0,0-11.6,11.6,34.5,34.5,0,0,0,1.18,10.11c.63,2.08,1.68,4,2.39,6-1.32-3.77.11,1.51.28,2.2-.61-2.59,0-.36,0,1.08s-.1,3-.2,4.56c0,.65-.76,4.88-.15,2.22-.3,1.32-.63,2.62-1,3.92-.27.85-.56,1.7-.88,2.53.34-.75.32-.73,0,.07a33,33,0,0,1-2.26,4.12,49.58,49.58,0,0,1-5.5,6.22,110.67,110.67,0,0,1-16.57,13.15c-12.09,8.27-24.18,16.55-31.62,29.54a46.93,46.93,0,0,0-6.12,17.91c-.76,6.57,1.24,12,4.4,17.59a1.06,1.06,0,0,0,1.92-.82Z"/><path class="cls-1" d="M1148.9,947.31c34.81-3.74,48.58-44.42,52.72-73.74,1.43-10.08,2.32-20.24,3.59-30.34.72-5.75,1.91-28.71,12.92-21.09,7.67,5.31,9.2,16.26,10.91,24.67a246.76,246.76,0,0,1,4.39,32.94c1.52,23.66.79,49.45-6.35,72.21-1.18,3.77,5.24,5.34,5.79,1.59,3.33-22.52,6.79-44.32,5.88-67.21a256.94,256.94,0,0,0-3.56-33.44c-1.61-9.32-2.89-19.86-8.09-28-3.25-5.09-9-10.72-15.6-8.79-8.37,2.43-9.12,12.86-10.13,20-3.1,22-3.33,44.78-10.88,65.86-7.12,19.91-21.39,36.63-41.88,43.23-1.09.35-1,2.26.29,2.12Z"/><path class="cls-1" d="M1283.57,966.15c25-8.58,37.42-38.11,42.55-61.83,3.3-15.32,4.52-31.17,5.2-46.8a394.3,394.3,0,0,0-1.46-56.57l-9.93,2.69a250.19,250.19,0,0,1,48.77,165.61c-.42,6.2,9.24,6.17,9.66,0a263.3,263.3,0,0,0-49.23-171c-2.76-3.8-10.45-3.13-9.93,2.69,2.9,32.28,3.6,65.81-2.38,97.8-2.35,12.61-5.68,24.82-11.17,36.45-5.6,11.85-13.44,20.54-23.12,29.15a1.08,1.08,0,0,0,1,1.8Z"/></g></g></svg>