<svg xmlns="http://www.w3.org/2000/svg" viewBox="0 0 462.09 1008.37"><defs><style>.cls-1{fill:#1d1d1b;}</style></defs><title>ecran3-queueduchatFichier 18</title><g id="Calque_2" data-name="Calque 2"><g id="Calque_1-2" data-name="Calque 1"><path class="cls-1" d="M.53,973.87c13.32,6.84,27,13.67,41.26,18.38a311.85,311.85,0,0,0,44.84,11.23,330.7,330.7,0,0,0,91,3.1A313.84,313.84,0,0,0,342.44,938c44.8-36.51,78.93-85.17,99.29-139.17A318.31,318.31,0,0,0,460.86,715c2.84-31.8.48-63.8-4.35-95.3-9.73-63.49-30.56-124.52-45.22-186.92-7.19-30.65-13-61.71-14.82-93.2-1.84-32.35,1.34-63.85,8.72-95.38,8-34.11,18.68-68.35,18.67-103.71,0-29.43-8.49-57.81-26.46-81.26C364.17,15.83,307.57-6.7,253.65,1.76c-55.32,8.68-103.08,49.1-128,98.22-28.35,55.8-28.15,124.46-5.9,182.33a320.38,320.38,0,0,0,20.79,43.08c4.82,8.5,17.95.85,13.11-7.67-15-26.43-25-56.64-29.83-86.59-4.84-29.71-3.7-60.58,4.55-89.57,14.08-49.52,51.38-94.16,100-112.7,23.29-8.88,48.32-12.06,72.89-7.14,23.8,4.77,46.5,15.64,64.61,31.9s31.33,37.49,36.23,61.65c6.52,32.2-1.27,65.33-9,96.59-7.82,31.8-15.32,63.34-16.42,96.22-1,30.52,2.37,61.06,7.83,91.05,11.14,61.16,31.47,120.13,45.39,180.64,13.2,57.39,20.44,116.64,7.46,174.77a319.09,319.09,0,0,1-74.77,143.82,300.88,300.88,0,0,1-142.77,88.2c-57.5,15.91-119,16.34-176.41-.23-14.28-4.12-28.25-8.2-41.86-14.24-1.19-.53-2.24,1.16-1,1.78Z"/><path class="cls-1" d="M167.67,266c6,38.47,26.15,76.1,59.55,97.41,2,1.29,4.3-1.67,2.55-3.31C202,334,179.22,302.83,169.57,265.47c-.33-1.25-2.09-.7-1.9.53Z"/><path class="cls-1" d="M217.55,270.78c4.49,31.15,15.32,63.2,37,86.68,2.52,2.73,6.9-.77,5.08-3.92-15.49-26.93-31-53.32-39.62-83.44-.46-1.61-2.66-.89-2.44.68Z"/><path class="cls-1" d="M262.05,275.22c12.06,27.74,16.74,56.88,20.88,86.58.42,3,4.72,1.94,5-.67,2.89-30.45-8-61.49-24-87a1.08,1.08,0,0,0-1.86,1.08Z"/><path class="cls-1" d="M319.79,252.72c2.54,8.62,3.07,18.24,4.1,27.16a157.15,157.15,0,0,1,.89,24.73c-.75,17.3-4.4,34.41-9.81,50.83-1.34,4.06,5.29,7,7,3a137.42,137.42,0,0,0,11-52.91,163.16,163.16,0,0,0-1.93-26.58c-1.47-9.62-5.21-17.92-8.41-27-.64-1.8-3.45-1.08-2.89.8Z"/><path class="cls-1" d="M24.22,929.52c49.44,25.49,108.93,30.7,162.32,15.26,48.77-14.1,91.43-46.34,119.94-88.15,32.33-47.42,42.06-106.61,41.73-163A461.87,461.87,0,0,0,319,535.06a429.82,429.82,0,0,0-40.82-81.68A364,364,0,0,0,251,415.84a261.57,261.57,0,0,0-32.18-31.75,7.83,7.83,0,0,0-11.07,11.07c32.94,39.65,63.57,81.12,85.68,127.9,21.81,46.16,36.19,96.2,40.5,147.13,4.61,54.38.92,112.57-24.6,161.79-22.36,43.09-59.16,78.39-103.5,98.3C148.63,956,81.94,954.14,25.45,927.42c-1.4-.67-2.63,1.38-1.23,2.1Z"/></g></g></svg>