<svg xmlns="http://www.w3.org/2000/svg" viewBox="0 0 69.7 76.22"><defs><style>.cls-1{fill:#1d1d1b;}</style></defs><title>action-valideeFichier 10</title><g id="Calque_2" data-name="Calque 2"><g id="Calque_2-2" data-name="Calque 2"><path class="cls-1" d="M0,54.83A73.12,73.12,0,0,0,9.1,75.48c1,1.48,3.6.59,3-1.27a73.24,73.24,0,0,0-10.52-20c-.53-.74-1.82-.33-1.54.65Z"/><path class="cls-1" d="M31.74,29.17c3.14,7.46,7.57,14.45,15.47,17.43,2.56,1,4.27-2.64,2.55-4.39-5-5.14-11.3-8.82-16.22-14.09-.69-.74-2.23,0-1.8,1.05Z"/><path class="cls-1" d="M52,3.72c2.68.7,5,1.73,7.8,2A30.5,30.5,0,0,0,68,5.17C70.26,4.79,70.26,1,68,.65A30.09,30.09,0,0,0,59.82.1C57,.37,54.7,1.4,52,2.1a.84.84,0,0,0,0,1.62Z"/></g></g></svg>