<?xml version="1.0" encoding="UTF-8" standalone="no"?>
<svg
   xmlns:dc="http://purl.org/dc/elements/1.1/"
   xmlns:cc="http://creativecommons.org/ns#"
   xmlns:rdf="http://www.w3.org/1999/02/22-rdf-syntax-ns#"
   xmlns:svg="http://www.w3.org/2000/svg"
   xmlns="http://www.w3.org/2000/svg"
   xmlns:sodipodi="http://sodipodi.sourceforge.net/DTD/sodipodi-0.dtd"
   xmlns:inkscape="http://www.inkscape.org/namespaces/inkscape"
   viewBox="0 0 129.45 129.45"
   version="1.1"
   id="svg3729"
   sodipodi:docname="bouton-fleche-gauche.svg"
   inkscape:version="0.92.2 (5c3e80d, 2017-08-06)">
  <metadata
     id="metadata3733">
    <rdf:RDF>
      <cc:Work
         rdf:about="">
        <dc:format>image/svg+xml</dc:format>
        <dc:type
           rdf:resource="http://purl.org/dc/dcmitype/StillImage" />
        <dc:title>bouton-fleche-droiteFichier 8</dc:title>
      </cc:Work>
    </rdf:RDF>
  </metadata>
  <sodipodi:namedview
     pagecolor="#ffffff"
     bordercolor="#666666"
     borderopacity="1"
     objecttolerance="10"
     gridtolerance="10"
     guidetolerance="10"
     inkscape:pageopacity="0"
     inkscape:pageshadow="2"
     inkscape:window-width="1920"
     inkscape:window-height="1017"
     id="namedview3731"
     showgrid="false"
     inkscape:zoom="6.550792"
     inkscape:cx="36.865771"
     inkscape:cy="64.724998"
     inkscape:window-x="-8"
     inkscape:window-y="-8"
     inkscape:window-maximized="1"
     inkscape:current-layer="svg3729" />
  <defs
     id="defs3719">
    <style
       id="style3717">.cls-1,.cls-2{fill:none;stroke:#1d1d1b;stroke-linecap:round;stroke-width:2px;}.cls-1{stroke-miterlimit:10;}.cls-2{stroke-linejoin:round;}</style>
  </defs>
  <title
     id="title3721">bouton-fleche-droiteFichier 8</title>
  <g
     id="Calque_2"
     data-name="Calque 2"
     transform="rotate(180,64.720001,64.720001)">
    <g
       id="Calque_2-2"
       data-name="Calque 2">
      <circle
         class="cls-1"
         cx="64.720001"
         cy="64.720001"
         r="63.720001"
         id="circle3723"
         style="fill:none;stroke:#1d1d1b;stroke-width:2px;stroke-linecap:round;stroke-miterlimit:10" />
      <polyline
         class="cls-2"
         points="52.53 97.89 95.39 65.82 53.94 31.07"
         id="polyline3725"
         style="fill:none;stroke:#1d1d1b;stroke-width:2px;stroke-linecap:round;stroke-linejoin:round" />
    </g>
  </g>
  <path
     style="fill:#ffffff;fill-opacity:1;stroke-width:0.15265329"
     d="M 60.603359,127.23391 C 40.288908,125.94181 21.477562,114.45343 11.023829,96.954937 1.5328527,81.067998 -0.51137769,61.962092 5.4210624,44.590029 8.5678503,35.375238 13.58504,27.316765 20.444163,20.460333 28.602325,12.305373 38.631462,6.6438349 49.764975,3.9084713 c 5.43025,-1.3341442 8.97048,-1.7477397 14.960023,-1.7477397 4.751036,0 6.726562,0.1554289 10.760534,0.8466093 11.072449,1.8971525 22.04318,7.1524991 30.530468,14.6251141 5.22905,4.603909 9.89263,10.333935 13.26127,16.29381 6.34659,11.228551 9.13572,24.750078 7.72514,37.451111 -2.01079,18.105478 -11.41719,34.074584 -26.25123,44.566354 -11.582289,8.19187 -25.836735,12.20044 -40.147821,11.29018 z M 76.153408,99.152503 c 0.47527,-0.373846 0.53475,-1.02561 0.135077,-1.480123 C 76.099258,97.457188 38.979453,66.294096 36.061435,63.900671 35.802489,63.688279 37.303599,62.533255 56.784476,47.955396 72.25933,36.375309 77.811249,32.141224 77.880026,31.867199 78.120154,30.91045 77.242713,30.166926 76.428731,30.637405 75.788613,31.00739 33.453802,62.68674 33.240255,62.955555 c -0.104949,0.132111 -0.190816,0.462787 -0.190816,0.734835 0,0.470016 1.027489,1.355709 20.646358,17.7971 11.355497,9.516356 20.844532,17.455226 21.086742,17.641932 0.547566,0.42209 0.85699,0.4273 1.370869,0.02308 z"
     id="path3759"
     inkscape:connector-curvature="0" />
  <path
     style="fill:#ffffff;fill-opacity:1;stroke-width:0.15265329"
     d="m 60.603359,127.23723 c -6.367937,-0.4277 -12.878837,-1.88852 -18.75343,-4.20762 C 21.559162,115.01944 6.9474316,97.226654 3.0704663,75.807628 2.3476872,71.814499 2.1513756,69.476018 2.1477868,64.816591 2.1443989,60.418118 2.2657174,58.68986 2.8335977,55.04678 5.6727193,36.833178 16.490815,20.69967 32.263454,11.156723 40.035884,6.4541564 48.533098,3.5590471 57.8556,2.4371519 61.050006,2.0527284 68.353895,2.0513426 71.594396,2.4345452 90.087224,4.621398 106.22674,14.360738 116.53478,29.553679 c 11.99462,17.678772 14.16719,40.126325 5.78418,59.763766 -7.65157,17.924045 -23.237287,31.284345 -42.099652,36.088435 -6.460097,1.64533 -13.123365,2.26742 -19.615949,1.83135 z M 76.180933,99.094194 c 0.477465,-0.477463 0.479518,-1.069269 0.0052,-1.508817 C 75.982968,97.397054 66.812591,89.6926 55.807554,80.464366 44.802517,71.236132 35.849647,63.638961 35.912286,63.581765 c 0.06264,-0.0572 9.009763,-6.767002 19.882494,-14.910677 10.872731,-8.143675 20.30098,-15.228465 20.951665,-15.74398 0.945194,-0.748844 1.183063,-1.019091 1.183063,-1.344096 0,-0.5046 -0.549245,-1.113413 -1.004472,-1.113413 -0.213469,0 -6.344177,4.490275 -16.421782,12.027704 -23.46186,17.548027 -27.212429,20.367596 -27.336988,20.551154 -0.06168,0.0909 -0.113205,0.339881 -0.11449,0.553287 -0.0029,0.484518 0.425613,0.899732 4.271955,4.139197 2.959787,2.49279 25.53332,21.417453 33.619162,28.184835 2.520789,2.109754 4.360824,3.543113 4.548374,3.543113 0.173236,0 0.483584,-0.168613 0.689666,-0.374695 z"
     id="path3761"
     inkscape:connector-curvature="0" />
</svg>
