<svg xmlns="http://www.w3.org/2000/svg" viewBox="0 0 120.79 221.34"><defs><style>.cls-1{fill:#1d1d1b;}</style></defs><title>ecran5-eclair1Fichier 21</title><g id="Calque_2" data-name="Calque 2"><g id="Calque_2-2" data-name="Calque 2"><path class="cls-1" d="M30.9,218.92C26,211.72,20,205.43,14.14,199c-2.27-2.51-9.63-8.47-6.81-11.85,2.14-2.57,6.84-3.38,9.82-4.35Q41.91,174.63,67.39,169A3.62,3.62,0,0,0,69,163c-6.46-5.77-12.81-11.66-19.19-17.51-5.93-5.44-12.42-10.62-17.8-16.61-3.85-4.27-.95-6.87,2-10.57q3.5-4.45,7.12-8.82c5.24-6.31,10.2-12.84,15.55-19.07C66.9,78.45,76.75,66.06,86.92,54q7.93-9.47,16-18.8c5.47-6.3,12.16-12.42,16.29-19.7,6.18-10.9-7.63-20.21-16.56-12.78C95.92,8.3,90.74,17,85.43,24S74.79,38.2,69.56,45.36C58.9,60,49,75,39.07,90.06c-4.86,7.42-9.44,15-14.1,22.55-3.83,6.2-7.08,12.53-2.33,19.26,2.3,3.27,5.62,5.59,8.64,8.14,3.58,3,7.1,6.08,10.64,9.12,7.34,6.31,14.72,12.57,22,19l1.59-6q-16.17,3.68-32.09,8.33Q25.67,172.7,18,175.2c-4.26,1.4-9,2.54-12.81,5-6.44,4.1-6.7,10.81-1.88,16.35A191.88,191.88,0,0,0,28.25,221c1.36,1.08,3.83-.32,2.65-2Z"/></g></g></svg>