<svg xmlns="http://www.w3.org/2000/svg" viewBox="0 0 1627.29 1303.63"><defs><style>.cls-1{fill:#1d1d1b;}</style></defs><title>ecran6-chatFichier 23</title><g id="Calque_2" data-name="Calque 2"><g id="Calque_2-2" data-name="Calque 2"><path class="cls-1" d="M122.94,308.72c3.2,25.86,6,52.81,13.9,77.75,6.58,20.84,19.56,42.06,42.18,47.78,21.42,5.42,41.28-7.28,53.76-23.85,14-18.56,20.13-42.4,21.85-65.26A218.45,218.45,0,0,0,253.48,305c-.75-6.82-1.62-13.63-2.72-20.4s-1.63-13.63-5.51-19.27c-2-3-7.87-3.22-8.57,1.12-1.64,10.23,2.68,21.37,4.32,31.53a209.14,209.14,0,0,1,2.61,31.9c.14,21.12-3.18,42.63-12.8,61.64-7.87,15.56-22.47,32.43-41.39,32.57-21.54.16-35.39-20.67-42-38.67-9.12-24.92-16-51.17-21.91-77-.32-1.41-2.76-1.14-2.58.35Z"/><path class="cls-1" d="M370,260.44c-.31,14.73,1.4,29.55,2.59,44.22,1.12,13.85,2.29,27.7,4.18,41.47,3.24,23.55,12.38,48.62,34.06,61.17,11,6.36,24.51,8.58,36.53,3.83,11.23-4.43,19.82-13.09,26.74-22.74C488.37,368.5,495,343,494.86,318.73a159,159,0,0,0-7.16-44.14,193.38,193.38,0,0,0-7.56-20.44c-3-7-5.92-14.45-11.57-19.68-2.83-2.62-8.73-1-8.32,3.45.55,6,2.76,11.09,4.91,16.67s4.07,11.34,5.81,17.11a162.25,162.25,0,0,1,6.72,33.21c1.79,21.46-.75,43.78-10.71,63.11-8.7,16.89-25.06,36.43-46.05,26.42-19.36-9.23-26.68-31.65-31.13-51-6.37-27.59-9.75-56.21-18.5-83.21a.66.66,0,0,0-1.29.18Z"/><path class="cls-1" d="M163.84,338.17c-5.65,29.55-10,71.52,23.33,86.68,4.11,1.88,8.07-.4,8.53-4.89,1.51-15.13,1.72-29.49-2-44.38a122.63,122.63,0,0,0-7.36-20.74c-3.07-6.78-6.95-16.42-12.87-21.12-3.35-2.66-9.2-.33-7.75,4.52,2,6.55,7,12.49,10,18.7a109.73,109.73,0,0,1,7.48,20.64c3.27,12.95,4.55,27.78,1.35,40.88l8.32-3.39c-5.67-3.61-11.08-7.36-14.81-13.09a48.38,48.38,0,0,1-6.32-15.48c-3.66-15.58-4.65-32.11-5.71-48-.08-1.19-2-1.62-2.21-.3Z"/><path class="cls-1" d="M409.71,320.82c-6.08,12.76-7.48,28.19-6.43,42.14a108.75,108.75,0,0,0,3.89,22c1.93,6.71,4,14.46,7.74,20.43,7,11.28,23.82,7.53,26.89-4.86,3.19-12.88,2.2-27.66-.45-40.53-3.21-15.65-10.16-32.68-20.65-44.9-4.47-5.21-12.46,1.45-9.28,7.15,3.64,6.52,7.89,12.56,11.06,19.35a98.89,98.89,0,0,1,6.81,20,84.72,84.72,0,0,1,1.55,29.17c-.22,1.85-.26,6.67-1.76,8-4.07,3.62-7.22-9.53-8.08-11.92a187,187,0,0,1-5.92-21c-3.4-14.83-3.34-29.66-4.23-44.72,0-.55-.86-.89-1.14-.31Z"/><path class="cls-1" d="M299,382.09c9.3-4.57,18.07-9.9,28.85-9.85,6.22,0,10.76,3,9.46,9.81a46,46,0,0,1-5.9,14.31c-2.47,4.11-7.07,8.18-12.2,5.95-4.45-1.94-2.31-8-4.79-11.53-2.92-4.13-11.69-3.76-11.09,2.51.35,3.59,5.77,3.75,5.72,0,0,1.35,1.35,3.12,1.63,4.89a16.44,16.44,0,0,0,.82,3.58,10.12,10.12,0,0,0,3.27,4.37,13.33,13.33,0,0,0,11.17,2c10-2.47,16-16,17.54-25.21,1.76-10.59-5.9-17.64-16.3-16.6s-22.77,6.2-28.69,15.22c-.22.34.2.67.51.52Z"/><path class="cls-1" d="M316,426.59c-5.86,3.68-11.1,8.73-16.66,12.88a145.65,145.65,0,0,1-18.15,11.58,114.4,114.4,0,0,1-42,13c-15.88,1.66-31.3-.61-46.7-4.51-15.9-4-32.26-10.29-48.88-9.1-2.8.2-3.74,4.44-.7,5.16,17.63,4.13,35.18,8.62,52.81,12.74,15.56,3.63,31.16,5.13,47,3A123.29,123.29,0,0,0,285,457.47c12-6.54,26.55-16.79,32.07-29.86.27-.63-.32-1.47-1-1Z"/><path class="cls-1" d="M318.77,424.25c7.46,5.21,16.6,8.53,24.91,12.18,8.15,3.57,16.36,7,24.79,9.86,16.24,5.52,33.16,9.58,50.35,10.37a121.33,121.33,0,0,0,44.25-5.83c13.35-4.51,28.36-11.91,36.19-24.11,2.07-3.22-2.18-7.82-5.45-5.45-5.66,4.1-10.78,8.86-16.71,12.62a90.16,90.16,0,0,1-19.3,9.25,117,117,0,0,1-41.28,5.79c-16.41-.53-32.58-4.2-48.2-9.08q-12.39-3.87-24.56-8.37c-8-3-16-7-24.38-8.69a.8.8,0,0,0-.61,1.46Z"/><path class="cls-1" d="M64.62,409.26c-.14-1.82.63-3.57.42-5.48a17.51,17.51,0,0,0-.92-4.1,23.93,23.93,0,0,0-5.57-8.84,50.91,50.91,0,0,0-17-10.86c-13.29-5.22-28.9-4.78-39.59,5.6-4.19,4.07-1.22,12.54,5,12.08,9.69-.7,20.08-1.61,29.53.67,5.08,1.23,9,3.27,13.52,5.7,2,1.09,4.21,2.1,6.31,3.06s5.58,1.43,7.39,2.7a.61.61,0,0,0,.92-.53Z"/><path class="cls-1" d="M66.75,433.7c-6.81-9.53-22.07-8.47-32.16-5.54C23.34,431.42,14.94,439,11,450.07c-2.27,6.41,6,12.69,11.64,8.94a87.53,87.53,0,0,1,18.52-9.61c7.26-2.59,15.67-.26,22.46-3.85,3.87-2,5.75-8.15,3.11-11.85Z"/><path class="cls-1" d="M67,468.94c-3.62,1.12-7,1.42-10.49,4.53a39.84,39.84,0,0,0-8.84,12.75,62.9,62.9,0,0,0-5.45,30.41c.65,10.76,16.85,11,16.88,0a74.28,74.28,0,0,1,4.44-23.71c2-5.83,8.49-15.4,5.07-21.44l.38,2.85c.16-.95.34-1.9.55-2.85A2.09,2.09,0,0,0,67,468.94Z"/><path class="cls-1" d="M540.4,357.4c4.64-3.36,11-5.37,16.35-7.4a170.62,170.62,0,0,1,16.92-5.69c11.61-3.11,23.72-3,35.44-5.68,8-1.82,6.28-12,0-14.55-13.93-5.63-29-1.47-42,4.59a61.62,61.62,0,0,0-17,11.39c-4.83,4.72-7.61,10.22-11.42,15.6-.72,1,.72,2.47,1.73,1.74Z"/><path class="cls-1" d="M549,393.12c2.56-.41,5.59.14,8.2,0,2.89-.17,5.77-.45,8.64-.76,5.23-.55,10.68-1.06,15.93-.4,8.45,1.07,16.24,5.86,23.09,10.6,5.74,4,12.61-2.57,11.16-8.58-3.33-13.85-17.81-20-30.9-19.71A52.8,52.8,0,0,0,564.92,379a45.5,45.5,0,0,0-9.24,5.34c-2.73,2-4.82,4.9-7.53,6.83a1.09,1.09,0,0,0,.84,2Z"/><path class="cls-1" d="M550.42,421.52c6.3,1.23,12.06,8.49,15.49,13.55a65,65,0,0,1,8.31,18.06c1.63,5.52,9.2,5.26,10.94,0,3.29-9.92-.47-20.66-8.13-27.51a29.07,29.07,0,0,0-12.43-6.68c-4.84-1.15-9.09,0-13.88.37-1.18.1-1.63,2-.3,2.21Z"/><path class="cls-1" d="M171.83,144.32c23-18.37,53.74-20,81.95-18.17,15.08,1,30.23,3.15,45.35,1.71,14.92-1.42,31.31-5.52,42.31-16.4,6.75-6.69,10.18-15.73,8.58-25.15s-8.29-16.73-18.26-15.73c-6.28.63-12.09,7.43-7.85,13.68q1.13,1.5.12.39c.52,1.27,1.06,2.54,1.6,3.8,1.05,2.22.78,1.35,1.16,2.94-.19-1-.25-.82-.17.67.1-1,0-.86-.35.58.44-.81-1.23,1.59-.69.9-3.92,5.11-12,7.6-18.2,9.12-16.2,3.94-33.69,1.57-50.13.79-17.54-.83-34.7.3-50.71,8-14.43,7-26.63,18.58-36.43,31.1a1.22,1.22,0,0,0,1.72,1.72Z"/><path class="cls-1" d="M195,117.23c-10.91-16.66-29.5-29.75-46.41-39.74A255.15,255.15,0,0,0,90.89,52.36,258.07,258.07,0,0,0,61,45.5c-4.84-.81-10.52-2.06-14.94.92-3.44,2.32-5,7.82-5.75,11.72-4.25,20.92-4.42,43.1-1.72,64.21,3.12,24.47,10.19,48.65,22.19,70.27,2.85,5.13,10.24.62,7.77-4.54C51.35,152,43.32,112.67,48,72.7a94,94,0,0,1,2.42-13.22c.29-1.11-1.75-.43.09-.25a20.74,20.74,0,0,0,2.54-.37,32.93,32.93,0,0,1,6.62.88A257.7,257.7,0,0,1,87.1,66.13a271.72,271.72,0,0,1,52,21c9,4.82,17.85,9.89,26.42,15.48,8.84,5.77,17.6,12.19,26.9,17.2,1.56.84,3.64-.93,2.56-2.57Z"/><path class="cls-1" d="M49.18,54.15c13.9,18.29,28.63,35.94,42,54.62s25.84,38.25,37.83,58c1.63,2.69,5.65.32,4.21-2.46A453,453,0,0,0,96,104.94c-13.58-18.52-28.14-36.6-45.2-52-.82-.74-2.37.26-1.62,1.25Z"/><path class="cls-1" d="M353.56,107.37c20.2-27.9,41.89-54.55,70.1-74.78a236.65,236.65,0,0,1,21.55-13.75c2.2-1.24,6.77-4.95,9.45-4.52,3.12.5,6.77,5.92,8.7,8.1A129.39,129.39,0,0,1,488.43,66a132.13,132.13,0,0,1,6.27,26.89c1.17,9.83.63,19.69,1.78,29.49.69,5.9,8.54,7.5,10.59,1.44,6-17.9,1.78-40.16-3.57-57.83a145.22,145.22,0,0,0-27.38-50.73c-5.84-7-13-16.07-23.19-15.24-4.7.39-8.83,3-12.76,5.41q-6.48,4-12.72,8.34a239.34,239.34,0,0,0-43,38.25c-14.2,16.28-26.2,33.81-33.76,54.13-.65,1.76,1.88,2.51,2.83,1.19Z"/><path class="cls-1" d="M447.63,20c-20.22,30.34-30.87,69.14-25.89,105.46.41,3,5.19,2.2,5.16-.7-.22-17.75.77-35.73,4.51-53.12A189.82,189.82,0,0,1,450.3,21.57,1.55,1.55,0,0,0,447.63,20Z"/><path class="cls-1" d="M292.48,496.94a22.67,22.67,0,0,0,12,12.56,37.88,37.88,0,0,0,18.71,3.7c15.79-.89,32.27-9.35,41.89-21.86,2.93-3.82-2-10.09-6.4-8.34-12,4.74-21.14,14.71-33.54,18.6-10.59,3.32-22.7,1.8-31.47-5.34-.48-.39-1.48,0-1.18.68Z"/><path class="cls-1" d="M312,512c-.66,1.35-1.95,2.18-2.54,3.6a8.34,8.34,0,0,0-.36,5,12,12,0,0,0,5.89,7.77,3.12,3.12,0,0,0,4.24-4.23,45.51,45.51,0,0,1-2.73-6,17.32,17.32,0,0,0-1.42-2.94c-.55-.85-1.56-1.72-1.59-2.8,0-.74-1.12-1.15-1.49-.4Z"/><path class="cls-1" d="M323.84,507.52A15.23,15.23,0,0,0,327.92,525c2.18,1.93,5.87-.54,4.2-3.24A31.4,31.4,0,0,1,327.34,508a1.79,1.79,0,0,0-3.5-.47Z"/><path class="cls-1" d="M338.52,505.59c-1.38,6.86,2.25,13.55,5,19.59,1.75,3.88,8.13,1.13,6.85-2.89-2-6.29-3.85-13.53-9.43-17.68a1.64,1.64,0,0,0-2.41,1Z"/><path class="cls-1" d="M512.34,533.51c24.19,21.76,53.94,36.56,83.83,48.83,31.13,12.78,63.47,22.22,95.48,32.49,60.17,19.28,118.85,42.7,172.41,76.62,52.79,33.42,99.26,77.2,130.1,132,33.13,58.8,47.76,126.64,49,193.74.61,32.49-1.44,65.29-8.25,97.12a260.92,260.92,0,0,1-35.26,86.24,157,157,0,0,1-14.38,19.28c-3.69,4.23,2.19,10.29,6.24,6.23a176,176,0,0,0,29.1-37.86,231.41,231.41,0,0,0,18.47-43.64c9.77-30.93,14.1-63.49,15.44-95.83,2.84-68.67-7.45-138.63-35.47-201.7C992.65,787.52,949.48,738.2,897.24,699.9c-51.74-37.94-111-64.73-171.61-85.12-64.2-21.6-132-34.51-190.94-69.42-7.17-4.25-14.19-8.82-21.1-13.47a1,1,0,0,0-1.25,1.62Z"/><path class="cls-1" d="M255.87,601.22c-.79,28.11,1.23,56.41,4.68,84.31s9.17,55.1,19.06,81.33a279.64,279.64,0,0,0,140.45,153c22.62,10.75,46.47,18.54,69.45,28.47,22.72,9.83,44.49,22,61.52,40.26,16.27,17.45,27.71,39,35,61.64,19.74,61,9.07,126-1.28,187.69l9.55-5.42c-8.37-1.16-17-3.28-25.44-1.8-7.59,1.33-15.25,4.65-20.73,10.17-11.66,11.74-14.67,30.88-3.5,44,10.49,12.28,27.93,13.64,42.94,14.4,9.28.48,18.55,1.17,27.85,1.29,4.46.06,9,.13,13.41-.09,6.33-.32,11.39-3,17-5.75,8.32-4.1,6.26-17.88-2.6-19.88-4-.9-8.34-2.55-12.44-2.55-3.45,0-7.09,1-10.54,1.42q-11,1.32-22.08,1.91a159.71,159.71,0,0,1-20-.22c-4.15-.29-9.06-1-12.55-2.62-6.87-3.18-7.85-9.24-3-15.56a21.59,21.59,0,0,1,11.63-7.31c3-.83,6.06-1.85,9.13-2.45s6-.07,9,.33,7-2.68,7.48-5.7c9.32-57.37,18.92-116.66,6.18-174.3-10.66-48.19-37-91.61-80.18-116.9-21.81-12.77-45.81-21.2-69.29-30.28-22.79-8.8-44.8-18.85-65.13-32.52a272.63,272.63,0,0,1-91.78-105.3C285.93,755.14,278,725.17,272.19,695c-6-31.19-8.07-62.93-13.37-94.21-.29-1.72-2.9-1.23-2.95.4Z"/><path class="cls-1" d="M639.62,778c-32.54,20.16-42.71,62.35-45.33,98.1-1.51,20.65.22,41.62,2.89,62.1a572.73,572.73,0,0,0,12.76,65.92c11.16,44.29,26.39,87.38,40.44,130.79,6.94,21.43,13.61,43,19.35,64.75,2.1,8,3.82,15.83,3.43,24.11-.25,5.48-2.1,13.26-8.18,14.9-5.75,1.56-11.27,1.35-16.71,4.25-5.1,2.72-8.59,7.35-10.7,12.64-3.64,9.18-1.79,19.89,3,28.34,12.24,21.73,44.78,24.19,65.2,14,3.82-1.9,5.56-7.06,4.48-11-1.22-4.45-5.09-6.67-9.4-7.16-9.71-1.09-19.43,2.08-29.15.22a27.08,27.08,0,0,1-5.18-1.45,18.78,18.78,0,0,1-2.54-1.35c-1.85-1.14-1-.67-.59-.34a18.2,18.2,0,0,1-2.61-2.65,25.72,25.72,0,0,1-2.11-3.76c-.26-.74-.46-1.51-.67-2.26-.12-.45-.4-2.85-.25-1.07-.07-.86.31-4.18,0-2.63.16-.72.4-1.38.59-2.09-.4,1.49,0,0,.31-.29-1,1.2.2-.2.37-.36a13.66,13.66,0,0,1,2-1.69c3.48-2.41,7.73-3.77,11.37-6s7.17-4.47,9.93-7.89c10.3-12.79,8.41-31.26,4.7-46.16-5.09-20.48-11.49-40.67-18-60.74-25.88-80.21-59.07-161.57-60.09-247.07-.24-20.07,1.18-40.14,6.63-59.53,5.36-19.07,14.56-36.58,26.31-52.5,1-1.31-.89-3-2.18-2.18Z"/><path class="cls-1" d="M978.67,1264.67c72.29,12.38,149.84-4.65,207-51.57a225.9,225.9,0,0,0,61.65-78.95c16.35-35.27,20.8-73.91,21.53-112.4.77-41.25-2.08-82.69,3.44-123.73,5.22-38.84,17.39-76.5,41.65-107.75,21-27.07,49.3-48.44,82.81-56.9,38.44-9.71,78.88-7.13,117.16-17.68,63.36-17.47,114.59-79.83,113.37-146.69a182,182,0,0,0-2.15-23.88c-1.18-7.82-12.94-5.45-13.26,1.8-.67,15.3-4.44,29.79-8.57,44.46a165.36,165.36,0,0,1-17.91,41c-14.9,24.76-37.31,46.11-64.3,56.44-36.15,13.85-75.55,11.41-112.75,20.45a168.46,168.46,0,0,0-88.22,54.28C1296.53,791,1282,825.08,1273,859.85c-10,38.26-11,77.61-10.74,116.92.32,40.51,1.52,81.77-8.8,121.31a212.94,212.94,0,0,1-48.51,88.79c-49.68,54.82-123.39,80.84-196.54,77.31-9.65-.47-19.28-1.33-28.84-2.68-2-.29-3,2.8-.87,3.17Z"/><path class="cls-1" d="M1148.27,525.31c-38.57,81.86-45.9,176-26.31,263.85,10,45.11,24.78,89.1,33.51,134.5,8.82,45.89,9.43,92.46-3.24,137.72-11.44,40.89-34.5,94.12-80.67,104.34-5.79,1.28-3.32,10.06,2.44,8.86,40.19-8.32,63.76-48,77.85-83.23,17.49-43.68,22.88-90.94,16.82-137.51s-21.72-91-34.41-135.9c-12.85-45.47-20.4-91.66-18.91-139C1117,626.25,1129,574.3,1149,525.6c.16-.39-.51-.68-.69-.29Z"/><path class="cls-1" d="M1194.48,475.85c34.45-46.1,81.81-80.52,135.67-100.47A359.5,359.5,0,0,1,1376.56,362c2.73-.62,2.19-5.35-.67-5-57.66,7.56-111.79,38-152.17,79.28a266.39,266.39,0,0,0-31.11,38.43c-.78,1.18,1.05,2.18,1.87,1.09Z"/><path class="cls-1" d="M1360.28,423.31c54-37.68,121.34-52.84,186.57-46.92,3.53.32,4.4-5.7.84-6.26-66.9-10.64-135.68,10-188.32,52-.66.53.21,1.67.91,1.18Z"/><path class="cls-1" d="M1461.5,442.2c35.25-24.62,85.09-23.39,117.94,4.95,3,2.57,7.25-1.54,4.38-4.37-32.22-31.74-90.27-33.37-123-1.54-.49.47.16,1.36.73,1Z"/><path class="cls-1" d="M1555.43,476.65c20.88,1.54,39,16.41,45.45,36.27.88,2.74,5.21,1.58,4.34-1.2-6.74-21.39-27.43-36.16-49.79-36.29a.61.61,0,0,0,0,1.22Z"/><path class="cls-1" d="M315.65,777.17c20.16,37.68,51.51,73,88.91,94.24,2.49,1.41,4.54-2.22,2.22-3.81-17.78-12.17-34.91-25-50.06-40.37a275.14,275.14,0,0,1-39.21-51.14,1.08,1.08,0,0,0-1.86,1.08Z"/><path class="cls-1" d="M368,792.13a470.06,470.06,0,0,0,64.19,70.42c2.17,1.94,5.39-1.33,3.18-3.18a441.09,441.09,0,0,1-65.67-68.23c-.75-1-2.46,0-1.7,1Z"/><path class="cls-1" d="M670.19,607.63c-2.49,4.76-3,10.09-4.41,15.24a136.59,136.59,0,0,1-5,14.91,124,124,0,0,1-17.49,30.46,134.27,134.27,0,0,1-23.88,23.22c-8.5,6.6-17.06,13.23-22.22,22.91-1.14,2.12.72,4.06,2.87,3.74,28.69-4.22,57.27-13.52,80.23-31.73,19.91-15.79,36.76-39.78,38.35-65.85.12-1.94-3-2.37-3.41-.46-2.84,12.73-7,24.24-14,35.3a110.71,110.71,0,0,1-25.62,28c-22.15,17.1-49.53,25.7-76.89,29.8l2.88,3.74c5.56-10.47,15.4-17.11,24.44-24.32a127.65,127.65,0,0,0,39.46-53.54,113.06,113.06,0,0,0,4.88-15.76c1.21-5.17,2.51-10.25,1.28-15.5a.8.8,0,0,0-1.46-.19Z"/><path class="cls-1" d="M794.88,648.51c-.94,4.21-1.27,8.54-2.48,12.68a57.58,57.58,0,0,1-6,13.17c-5,8.35-11.41,15.82-17.65,23.27a555.89,555.89,0,0,1-40.23,43.13,2,2,0,0,0,1.44,3.46,121.1,121.1,0,0,0,64.48-21.63,124.1,124.1,0,0,0,25.11-23,120,120,0,0,0,9.67-13.49c3.2-5.21,5.58-10.76,9.19-15.7,3.06-4.19-5.59-7.73-6.34-2.67-1.57,10.65-9.45,21.09-16.17,29.24a120.77,120.77,0,0,1-24.23,22.31A116,116,0,0,1,730,740.16l1.43,3.47a541.86,541.86,0,0,0,43.67-47.48c5.88-7.24,11.76-14.63,16.12-22.9,3.84-7.27,7.64-16.52,5.06-24.74a.71.71,0,0,0-1.36,0Z"/></g></g></svg>