<svg xmlns="http://www.w3.org/2000/svg" viewBox="0 0 1992.51 909.33"><defs><style>.cls-1{fill:#1d1d1b;}</style></defs><title>ecran2-chatFichier 16</title><g id="Calque_2" data-name="Calque 2"><g id="Calque_2-2" data-name="Calque 2"><path class="cls-1" d="M235.37,490.42c1.81,60.49,47.82,119.77,99.16,148.3,27.37,15.22,57.13,17.42,83.41-1.23,24.52-17.39,38.69-47,40-76.68.91-20.49-2.95-40.75-9.24-60.17-6.61-20.41-11.42-43.21-28.52-57.39-7-5.8-19.4.19-19.38,9.21,0,20.75,13,36.55,19.82,55.43,6.65,18.3,11.19,38.25,9.44,57.82-2.47,27.76-21.36,60.58-51,65.4-35.18,5.74-70.62-26.24-92.12-50.5-23.68-26.71-36.15-57.7-47.77-90.91-.65-1.85-3.87-1.23-3.81.72Z"/><path class="cls-1" d="M574.1,404.43c-1.38,16.52,7.8,37.18,14.76,51.88,8.2,17.33,18.86,34.7,32.52,48.26,25.2,25,64.88,43.41,99.64,27,38.77-18.31,44.19-65.21,39.53-102.59-2.4-19.22-5.69-38.79-12.22-57.08-4.7-13.16-14.94-40.19-32.25-39.23-5.4.3-9.05,3-10,8.56-1.29,7.57,2.9,12.78,6.68,19A97.36,97.36,0,0,1,721.64,379a147.87,147.87,0,0,1,7.73,43.53c.77,27.52-3.1,60.12-27.18,77.43-25,18-54.1-4-72.7-21.36a220.51,220.51,0,0,1-29.65-33.91,231,231,0,0,1-13.18-20.82c-3.64-6.56-6.28-14.05-10.89-20a1,1,0,0,0-1.67.55Z"/><path class="cls-1" d="M533.79,568c5.78-.68,10.64-2.82,15.75-5.67,2.7-1.51,12.11-9.43,14.46-7.49s-.17,15.69-.44,18.5a110.67,110.67,0,0,1-5,23.1l8.27-3.88a82.5,82.5,0,0,1-31.7-23.47c-4.84-5.76-13.46,1.7-8.83,7.56a95.72,95.72,0,0,0,36.14,28.06c3.17,1.44,7.18-.8,8.27-3.88a118.91,118.91,0,0,0,7.18-34.24c.33-7.61.91-17.86-5.28-23.49-13-11.8-35.4,12.46-40.52,22.95-.53,1.1.68,2.07,1.68,2Z"/><path class="cls-1" d="M560.62,627.82c-12.41,40.54-45.74,64.72-88.15,62.74-19.1-.89-38.16-4.31-57.19-.64-11.71,2.26-31.28,7.9-33.43,21.57-.44,2.76,2.5,5,5,4.47,8-1.51,13.78-8.5,21.46-11.46,9.59-3.68,20.1-4.79,30.29-4.93,21.67-.28,43.9,3.75,65.19-2,31.66-8.47,58.31-35.7,62.54-68.56.43-3.29-4.76-4.43-5.73-1.23Z"/><path class="cls-1" d="M569.28,625.91c28.35,23.43,69.85,16,99.93-.14,17.67-9.51,33-22.9,48.12-35.92,8.33-7.16,16.57-14.43,25.14-21.32,8.34-6.7,18.31-12.35,25-20.75,3.38-4.25-1.17-11.53-6.53-10-16.51,4.69-30.38,21-42.42,32.59-13.49,13-26.78,26.24-41.86,37.46-29.73,22.1-70.62,34.6-104.25,13.57-3-1.9-5.84,2.28-3.13,4.52Z"/><path class="cls-1" d="M561.44,701.61A54.52,54.52,0,0,0,566.33,745a4.55,4.55,0,0,0,8.18-4,92.6,92.6,0,0,1-5.9-37.92c.19-4-5.92-5.68-7.17-1.54Z"/><path class="cls-1" d="M601.89,697.36c4.61,13.62,11,26.94,19.91,38.28,3.61,4.6,10.35-.37,8.24-5.4-5.52-13.16-14.18-25.24-23.76-35.75-2.15-2.36-5.31.14-4.39,2.87Z"/><path class="cls-1" d="M630.08,678.49c9.55,11.06,18.77,21,30.26,30.16,3.62,2.87,8.9-2.83,5.48-6.07a187.83,187.83,0,0,0-15.55-13.76c-5.95-4.5-12.39-8-18.64-12a1.17,1.17,0,0,0-1.55,1.71Z"/><path class="cls-1" d="M192,278.15c-17.93-9-38-13.74-57.41-18.73-17.84-4.6-35.77-8.28-53.91-11.49-29.31-5.19-70.48-11.51-78.76,26.94-6.23,29,3.89,63.63,15.46,90.07a206,206,0,0,0,23.57,40.28c8.36,11.21,20,28.55,34.67,30.52,6.7.9,12.88-6.18,11.31-12.68-2.83-11.67-15-19.67-22.39-28.9A174.5,174.5,0,0,1,44,361.67C33,339,25,312,26.18,286.56,26.85,271.85,35,267.83,49,268.7c15,.94,30,3.43,44.9,5.42,31.63,4.22,64.65,11.2,96.58,11.2,4.34,0,5.24-5.31,1.54-7.17Z"/><path class="cls-1" d="M517.65,165.77c7.33-10,11.59-23.11,17.09-34.24,6.42-13,12.9-25.77,20.38-38.2,6.79-11.28,14.24-22.15,22.09-32.72C580.62,56,584.45,49.18,589.33,46c6.34-4.09,13.48,2,18.85,5.44C628,64.18,645,80.94,657.05,101.24a157.17,157.17,0,0,1,14,30.55c4,12.1,5.18,23.68,13.09,34.06,5,6.53,17.21,4.61,19.41-3.55,7.21-26.78-15.15-59-30.74-79.44-17-22.26-39.63-44-65.4-55.69C576.05,13,556.34,53.68,543.89,76a293.15,293.15,0,0,0-20.69,45.11c-4.65,13.11-10.15,29.91-9,44,.15,1.73,2.55,1.93,3.43.72Z"/><path class="cls-1" d="M837,350.65c26.36,3.38,62.22-12.59,63.35-42.88.37-10-12.88-15.48-18.85-6.71-5.82,8.57-9.82,18.49-16.63,26.35a58.67,58.67,0,0,1-28.2,17.6,2.86,2.86,0,0,0,.33,5.64Z"/><path class="cls-1" d="M865.58,392.82c8.41,6.5,17.59,9.94,28.38,7.83,12.31-2.4,22.52-10.35,23.19-23.57.44-8.75-9.46-13.42-16.2-8.23-10,7.7-19.09,21-33.45,18.59-3.1-.53-4,3.74-1.92,5.38Z"/><path class="cls-1" d="M872.69,423c-.7,21,14.43,52.7,40,45.21,4.52-1.33,7.68-7.06,3.85-11.05-12.64-13.12-30.57-17.39-38.41-35.19-1.12-2.55-5.32-1.79-5.41,1Z"/><path class="cls-1" d="M176.45,635.46c-21.44,9.47-43-2.09-64.72.71-8.56,1.1-11.76,12.33-6.44,18.46,21.66,24.94,57.55,6.58,75.42-12.68,2.9-3.14.06-8.4-4.26-6.49Z"/><path class="cls-1" d="M192.76,693.15a85.28,85.28,0,0,1-39.84,30.15c-7.61,2.69-3.33,15.79,4.5,13.53,10.55-3.05,19.27-7.52,26.46-16A49.21,49.21,0,0,0,195.06,694a1.27,1.27,0,0,0-2.3-.82Z"/><path class="cls-1" d="M207.34,730.46C196,742.73,194.15,756,194,772.23c-.13,10.13,13.72,13.6,17.61,3.79,6-15,9.48-28.26,3.65-43.92-1.06-2.85-5.76-3.92-7.87-1.64Z"/><path class="cls-1" d="M560.25,169.69c9.81-17.6,12.67-38.76,15.73-58.47,3.17-20.5,7.11-43.95,4.13-64.62-.73-5.09-7.87-4.12-8.57.49-3,20-1.94,41.06-4.45,61.32s-8.59,40.16-9.14,60.46c0,1.15,1.65,2,2.3.82Z"/><path class="cls-1" d="M154.45,317.25c-12.62-11.2-26.39-20.54-40.22-30.19-13.67-9.54-27-20.06-41.65-28.12-5.54-3.05-10.83,4.21-5.67,8.17,13.82,10.59,29.54,19,44.38,28,13.89,8.49,27.5,17,42.3,23.79,1.06.49,1.6-1,.86-1.68Z"/><path class="cls-1" d="M472.13,821.88c24.15,13.15,56.7,11.45,83.14,8,31.83-4.1,63-12.69,93.79-21.61,59.57-17.26,125.6-38.79,187.2-18.29,39.11,13,68,46.08,58.23,89.1-1.27,5.61,6.32,11.07,9.87,5.09,16.95-28.5,3.73-64-19.1-85.11-25.73-23.85-62.36-32.61-96.62-33.42C719,764,654.05,793.32,587.71,809.84a417.82,417.82,0,0,1-54.86,9.73c-20.17,2.24-40-.22-60.17.77-.72,0-1.38,1.09-.55,1.54Z"/><path class="cls-1" d="M851.86,843.18c6.79,7.18,10.69,15.87,12.46,25.54,1.54,8.41-1.3,16.43-.17,24.63.36,2.6,4.14,4.09,6,2.1,7.28-7.59,6.1-20.54,3.33-29.94-3.09-10.5-10.4-18.87-19.55-24.66-1.46-.93-3.39,1-2.11,2.33Z"/><path class="cls-1" d="M830.86,852.25c11.53,16,8.69,34.66-1,50.32a4.36,4.36,0,0,0,6.38,5.77c19.1-14.93,15-45.51-2.54-59.21-2-1.56-4.13,1.28-2.81,3.12Z"/><path class="cls-1" d="M782.42,762.74c24.53-16.7,46.44-37.58,69.29-56.53s46.14-37.62,66.56-59.25c19-20.16,35.63-42.57,47-68a164,164,0,0,0,11.62-36.9c2-10.6,6.25-28.08-1.77-36.84a5.26,5.26,0,0,0-8.19.42c-6.54,8.78-3.59,24.53-5.7,35.21a155,155,0,0,1-14,39.45c-12.65,25.1-30.8,47.48-50.78,67.07s-41.82,37.21-63.08,55.41c-19.82,17-40.54,35.32-52.13,59.1-.37.74.64,1.18,1.17.81Z"/><path class="cls-1" d="M1073,494.09c8,21.5,19.89,41.66,29.25,62.63s18.17,42.13,25.64,63.79c7.07,20.5,12.59,41.91,13.82,63.63,1.37,24.23-4,44.42-15.25,65.72a3.17,3.17,0,0,0,5.21,3.61c29.43-33.86,19.49-88.29,7.17-126.87a542.76,542.76,0,0,0-26.82-67.84c-10.65-22.42-21.77-46.33-38-65.36a.64.64,0,0,0-1,.69Z"/><path class="cls-1" d="M1108.26,745.89c4.56,13.05,4.78,27,8.84,40.09,1.56,5,8,4.57,9-.51,3.25-15.78-4.86-29.88-14.68-41.64-1.48-1.78-3.83.14-3.16,2.06Z"/><path class="cls-1" d="M1092.2,753.39c.19,14.51-1.11,29.47-1.84,44-.31,6.28,8.6,8.34,10.86,2.34,6.34-16.83,4.52-31.61-4-47.26-1.15-2.12-5-1.85-5,.95Z"/><path class="cls-1" d="M1071.91,767.1c3.38,13.53-1.87,29.38-10.54,40-3.82,4.67,3.21,10.49,7.63,6.88,15.36-12.54,17.33-31.87,7.48-48.37-1.32-2.21-5.29-1.33-4.57,1.53Z"/><path class="cls-1" d="M1048.84,784.32c-19.47,20.26-52,21.17-78.08,23.71-24.68,2.41-56.86,4.52-73.1,26-3.18,4.21,2.18,11,6.92,8.08,12.08-7.44,23.81-13.71,37.79-16.82,14.16-3.16,28.66-4.29,43-6.06,26.15-3.23,51-9.71,64.38-34,.31-.58-.39-1.41-.94-.85Z"/><path class="cls-1" d="M226.88,258.41c4.56-2.53,8.73-5.81,13.21-8.52s9.1-5.43,13.5-8.46a238,238,0,0,1,26.2-16c19-9.76,36.89-19.24,55.3-25.92a379.54,379.54,0,0,1,61.16-16.73c22.84-4.2,46.83-9.39,61.26-29.36,13.77-19.05,15.19-61.46-17-61.2-8.26.07-14.88,8.24-12.47,16.38.82,2.79.63-2.08,0-.69-.31.73.25,3.24.29,3.55l.3,2.23q3,7,.86,2a18.88,18.88,0,0,1,.64,2.15c.43,1.47.78,3,1.27,4.43,1.15,3.44.35-2.76-.05-.65a23.05,23.05,0,0,0,0,3.62c0,1.44-1.08,2.31,0,.68l.14-1.14c-.16.82-.34,1.63-.55,2.44s-.51,1.6-.73,2.41c-.93,3.36.4-.59.39-.72.07,1.61-2.36,3.53-2.78,5-.59,2,2.7-2.73.11-.1-.73.74-1.44,1.5-2.17,2.24-.56.59-2.78,2.15-.35.43-.87.61-1.76,1.21-2.67,1.77-1.81,1.13-3.7,2.08-5.61,3-4.37,2.2,1.88-.41-.93.37-1.29.35-2.54.91-3.82,1.31-2.59.82-5.21,1.52-7.85,2.16-9.56,2.29-19.31,3.67-28.91,5.82a259.88,259.88,0,0,0-58.32,21.08c-18.12,9-35.84,19.87-51,33.44-8,7.19-15.75,14.74-23,22.66a105.94,105.94,0,0,0-9.94,12.88c-3.12,4.62-6.73,9.8-9,14.84a1.85,1.85,0,0,0,2.5,2.51Z"/><path class="cls-1" d="M1072,78.62c1.82,7.2,7.43,12.52,12,18.18,6,7.4,11.52,15.12,16.83,23a357.19,357.19,0,0,1,28.1,49.64,312.25,312.25,0,0,1,28,109.64c.32,5,8.57,6.73,10.95,2.3,42.76-79.77-8.82-163.28-54.12-228.49-3.66-5.26-11.14,1.24-7.55,6.46,41.68,60.47,93.5,141.16,51.69,215.11l11,3.93c-1.67-39.6-10.19-77.28-26.91-113.32a276.93,276.93,0,0,0-29-48.65,242.19,242.19,0,0,0-19.66-22.9c-5.78-6-12-13.67-20.46-15.63-.43-.1-1,.2-.83.72Z"/><path class="cls-1" d="M1306.5,38.69c26.85,16.58,45.87,41.94,56.75,71.36,12.4,33.53,14.43,69.93,19.59,105,1.46,10,3.26,24.54,14.23,29,9.79,4,14.81-5.29,16-13.51,4.5-31.57,1.32-65.83-5-96.9a333.73,333.73,0,0,0-15.3-52.76c-6.2-16.23-13.07-35.59-24.54-48.84-2.59-3-6.62.21-5.44,3.56,6.35,18,17.2,34.45,23.8,52.54A323.56,323.56,0,0,1,1406,203c-.12,7.18,1.35,20.11-1.59,26.89-7.51,17.3-12.82-15.71-13.5-20.56-8.35-60-15-148.89-83.33-172.68-1.21-.42-2.21,1.34-1.06,2Z"/><path class="cls-1" d="M780.07,133.53c51.16.78,103.09-9.28,153-19.83,51.66-10.92,102.75-24.42,154.14-36.53C1192.27,52.41,1299.6,34.3,1408,39c180.75,7.89,383.28,78.35,479.37,242.3,25.19,43,41,88.84,50.54,137.6,4.66,23.95,6.93,48.5,8.59,72.83,1.69,24.8,2.39,50.06-1.49,74.68-2,12.48,16.46,15.28,20.89,4.5,18.69-45.45,29.4-89.8,26.05-139.21-3.22-47.69-17.23-94.35-37.36-137.58-41.07-88.15-111-160.35-194.31-209.74C1671.88,32,1573.3,5.12,1470.92.77c-112.2-4.77-225,13.12-333.06,42.44-59.21,16.07-117.58,35.06-176.81,51.05-59.94,16.18-119.8,26.68-181.22,35.08-2.34.32-2.16,4.15.24,4.19Z"/></g></g></svg>