<svg xmlns="http://www.w3.org/2000/svg" viewBox="0 0 168.92 262.88"><defs><style>.cls-1{fill:#1d1d1b;}</style></defs><title>ecran5-eclair2Fichier 22</title><g id="Calque_2" data-name="Calque 2"><g id="Calque_2-2" data-name="Calque 2"><path class="cls-1" d="M168.05,251c-7.29-1.26-14.61-.49-22-.2-8.53.34-17.06.73-25.59,1.11L96.85,253c-3.71.16-7.52.6-11.24.47-2.2-.07-3,.47-3.17-2.15-.12-1.8,2.6-5.11,3.44-6.58l24.55-42.8,11.79-20.54c3.34-5.83,7.67-11.77,9.13-18.45,1-4.54.78-9.77-2.73-13.23-4.92-4.88-12.36-2.72-18.38-1.9L60.9,154.46l-23.69,3.21-11.84,1.61c-3.71.5-9.39,2.42-13,1.66-2.07-.43-1.42.57-2.07-1.41-.35-1.06.28-3.6.39-4.61.42-4,.84-7.93,1.29-11.9,1-8.76,2-17.52,3.29-26.25l7.85-55L27,34.28c1.38-9.62,3.7-18.59,2-28.29-.63-3.48-4.53-6-7.87-6-3.88,0-6.49,2.62-7.86,6C9.86,14.2,10.41,23.21,9.81,32L8,57.74,4.37,110.3q-.9,12.92-2.1,25.78c-.73,7.83-2.61,16.26-2.22,24.1.83,16.66,22.88,9.63,33,8.25l51.3-7L110,157.91c1.91-.26,9.91-2.62,11.53-1.11,1.4,1.29-.41,5.74-1,7-3.08,7.27-8,14.16-11.89,21L95.91,207.13,83.17,229.4c-3.62,6.34-9.39,13.44-10.62,20.75s4,12.26,10.94,12.65c8.81.5,18.36-1.6,27.14-2.49,9.85-1,19.69-2,29.53-3,9.25-1,19-1.07,27.89-4,1-.35,1.27-2.13,0-2.35Z"/></g></g></svg>