<?xml version="1.0" encoding="UTF-8" standalone="no"?>
<svg
   xmlns:dc="http://purl.org/dc/elements/1.1/"
   xmlns:cc="http://creativecommons.org/ns#"
   xmlns:rdf="http://www.w3.org/1999/02/22-rdf-syntax-ns#"
   xmlns:svg="http://www.w3.org/2000/svg"
   xmlns="http://www.w3.org/2000/svg"
   xmlns:sodipodi="http://sodipodi.sourceforge.net/DTD/sodipodi-0.dtd"
   xmlns:inkscape="http://www.inkscape.org/namespaces/inkscape"
   viewBox="0 0 86.48 81.93"
   version="1.1"
   id="svg36"
   sodipodi:docname="ecran6-balle.svg"
   inkscape:version="0.92.2 (5c3e80d, 2017-08-06)">
  <metadata
     id="metadata40">
    <rdf:RDF>
      <cc:Work
         rdf:about="">
        <dc:format>image/svg+xml</dc:format>
        <dc:type
           rdf:resource="http://purl.org/dc/dcmitype/StillImage" />
      </cc:Work>
    </rdf:RDF>
  </metadata>
  <sodipodi:namedview
     pagecolor="#ffffff"
     bordercolor="#666666"
     borderopacity="1"
     objecttolerance="10"
     gridtolerance="10"
     guidetolerance="10"
     inkscape:pageopacity="0"
     inkscape:pageshadow="2"
     inkscape:window-width="1920"
     inkscape:window-height="1017"
     id="namedview38"
     showgrid="false"
     inkscape:zoom="10.350299"
     inkscape:cx="43.240002"
     inkscape:cy="40.965"
     inkscape:window-x="-8"
     inkscape:window-y="-8"
     inkscape:window-maximized="1"
     inkscape:current-layer="svg36" />
  <defs
     id="defs28">
    <style
       id="style26">.cls-1{fill:#1d1d1b;}</style>
  </defs>
  <title
     id="title30">ecran6-balleFichier 24</title>
  <g
     id="Calque_2"
     data-name="Calque 2">
    <g
       id="Calque_2-2"
       data-name="Calque 2">
      <path
         class="cls-1"
         d="M77.37,16.35C65.23.62,43-4.19,25.08,3.79c-1.31.59-.95,2.06,0,2.67C12.48,13.54,1.29,25.07.11,39.87-1.36,58.21,12.54,74.13,29.36,79.38c17.34,5.42,41,2.85,51.2-13.89C89.68,50.5,88,30.13,77.37,16.35ZM2.55,44.55C1,26.25,15.64,14.06,29.84,5.45a42.44,42.44,0,0,1,28.34,1A28.83,28.83,0,0,0,45.69,10.9c-7.19,4.72-9.86,12-9.75,19.4.12,8.08,3.19,15.89,3.06,24a21.37,21.37,0,0,1-2.73,10.89c-2.1,3.44-6.53,7.54-11.61,5.94a1.52,1.52,0,0,0-1.9,2.2C11.91,67.57,3.65,57.35,2.55,44.55Zm78,13c-3.34,9-9.77,15.67-19,18.51a55.82,55.82,0,0,1-26.34,1.56A44.46,44.46,0,0,1,26,74.85c6,1.15,12.24-4.94,14.43-9.09,3.27-6.22,3-13.35,1.86-19.93-1.54-8.8-5.21-18.94-.06-27.38,3.93-6.45,11.89-9.86,20.2-10a38.42,38.42,0,0,1,8.47,6.11C82.18,25.31,86,43,80.54,57.58Z"
         id="path32" />
    </g>
  </g>
  <path
     style="fill:#ffffff;fill-opacity:1;stroke-width:0.09661557"
     d="M 21.305753,72.458575 C 15.953505,69.364916 11.146849,64.8627 7.9396422,59.939038 5.0214617,55.459084 3.2899532,50.615126 2.6457315,45.129131 c -0.184,-1.566887 -0.1541964,-5.310209 0.054616,-6.859705 0.4877143,-3.6191 1.4438677,-6.692835 3.0956057,-9.951403 C 9.7190047,20.578577 17.014158,13.486387 28.233878,6.504361 c 1.595396,-0.9928145 1.713133,-1.0480543 3.022523,-1.4181088 3.328133,-0.9405829 6.549788,-1.41584 10.292828,-1.5183936 5.012259,-0.1373282 9.743874,0.5790847 14.633857,2.2157096 2.018069,0.6754264 2.02815,0.5732121 -0.09321,0.9451174 -2.557059,0.4482888 -5.295427,1.3787291 -7.825861,2.6590639 -6.506866,3.2923085 -10.490749,8.4281335 -11.873854,15.3071895 -0.361929,1.800098 -0.440881,2.721799 -0.442768,5.168933 -0.0025,3.295882 0.248153,5.437489 1.256425,10.733251 1.155602,6.069596 1.50523,8.416322 1.697196,11.391713 0.300076,4.651041 -0.334338,8.357882 -2.037845,11.906981 -0.728738,1.518258 -1.536941,2.692163 -2.684147,3.898688 -1.590717,1.67297 -3.308313,2.795207 -5.099152,3.331666 -1.206334,0.361368 -2.902143,0.382024 -4.081343,0.04972 -1.273717,-0.358945 -1.872452,-0.185211 -2.319698,0.673104 -0.170917,0.328011 -0.211189,0.525859 -0.170926,0.83973 0.02897,0.225839 0.01977,0.410617 -0.02045,0.410617 -0.04022,0 -0.571983,-0.288344 -1.181693,-0.640763 z"
     id="path42"
     inkscape:connector-curvature="0" />
  <path
     style="fill:#ffffff;fill-opacity:1;stroke-width:0.09661557"
     d="m 42.805232,78.410191 c -4.966045,-0.195186 -9.773571,-1.071173 -14.043128,-2.558824 -0.70943,-0.247188 -1.470278,-0.529676 -1.690773,-0.627751 l -0.400899,-0.178318 0.784423,-0.0068 c 3.086917,-0.02686 6.315476,-1.604321 9.393755,-4.589758 3.541736,-3.434914 5.385369,-7.361451 6.066323,-12.919946 0.212555,-1.735047 0.21041,-5.399621 -0.0044,-7.472245 -0.289649,-2.795054 -0.58261,-4.46961 -1.842406,-10.531097 -1.161632,-5.589173 -1.441725,-7.889359 -1.376488,-11.304021 0.06017,-3.149367 0.368059,-4.819058 1.336191,-7.246168 C 43.842472,13.918988 51.357513,9.2375215 60.952162,8.5634657 L 62.3846,8.4628322 63.401486,9.048611 c 6.642274,3.826296 11.752635,9.242661 15.180584,16.089581 4.307038,8.602797 5.478511,18.746911 3.240262,28.058339 -2.26862,9.437774 -7.725038,16.827768 -15.348291,20.787224 -3.984722,2.069632 -9.921422,3.64117 -16.006054,4.237054 -1.004737,0.0984 -5.198001,0.298647 -5.682136,0.271352 -0.132847,-0.0075 -1.024125,-0.04438 -1.980619,-0.08197 z"
     id="path44"
     inkscape:connector-curvature="0" />
</svg>
