<svg xmlns="http://www.w3.org/2000/svg" viewBox="0 0 208.13 100.02"><defs><style>.cls-1{fill:#1d1d1b;}</style></defs><title>RrrFichier 12</title><g id="Calque_2" data-name="Calque 2"><g id="Calque_2-2" data-name="Calque 2"><path class="cls-1" d="M30.2,99.65C30,95.76,28.29,92.21,27,88.58Q24.77,82.27,22.48,76q-4.56-12.63-8.59-25.44C10.33,39.19,2.94,19.25,17,12c8-4.11,20.78-2.2,23.69,7.46,3.31,11-7.29,23.22-18.42,21.77L23.5,50c7.38-1.23,14.26,7.63,18.16,12.62,4.74,6.05,8.39,12,14.69,16.69,5.87,4.35,13.1,7.48,20.49,7.76,8.86.34,18.68-4.17,20.53-13.56,1.69-8.62-6.9-16.21-15.08-11.59a45.39,45.39,0,0,0-5.16,3.55c1.35-1-1.44,0,.17-.13a14.72,14.72,0,0,1-5-.11c-5.64-1.38-10.6-4.87-14.95-8.61-5.34-4.6-10.62-9.58-17-12.8-6.54-3.32-12.16-3.73-19.27-2.46-5.41,1-3.39,8.27,1.19,8.8,25.22,3,41-34.94,16.46-47.22C29.25-1.81,16.86-.8,8.48,5.85-3.84,15.63-.43,32.6,4.37,45.43,7.8,54.62,11.59,63.69,15.5,72.68c2.17,5,4.35,9.94,6.77,14.79,2.11,4.22,3.89,9.11,7.29,12.44a.38.38,0,0,0,.64-.26Z"/><path class="cls-1" d="M102,56.76c11.25-12.64,2.88-34-12.88-38a2.14,2.14,0,0,0-2.55,1.45c-1.28,3.57.68,6.55,3.93,8.13,4.05,2,8.12,1.12,11.78-1.19,5.53-3.5,12.17-9.11,17-1.32,3,4.91,3.2,10.81,3.17,16.39,0,8.15.88,19.84,9.87,23.17C142,69,149,59.78,152.17,51.89A64.26,64.26,0,0,0,156.3,21a28.68,28.68,0,0,0-4.45-13c-1.91-2.72-5.91-6.91-9.52-7.11-3.4-.19-5.23,4-5.12,6.82a8.92,8.92,0,0,0,6.12,8.16c6.28,2,11.87-1.9,17.24-4.55,8.21-4,14.48-.58,17.5,7.68,3.81,10.44,0,27.7,12,33.69,7.33,3.65,19.29.75,17.91-9.15-.34-2.49-4.14-1.74-4.23.57-.16,3.91-4.09,5.36-7.51,5.38-5.19,0-8.15-3.69-9.71-8.3-2.86-8.43-1.39-17.59-5.13-25.82-2.81-6.2-8.16-11.26-15.37-10.61-4.25.38-7.77,2.76-11.48,4.61-3,1.49-7.12,3.65-10.36,1.81-1.67-.94-4.19-5.51-.72-4.82,3.12.63,5.67,5.71,6.67,8.34a35.32,35.32,0,0,1,1.93,12.57c0,8-1.27,16.73-4.55,24.12-1.55,3.5-3.77,7.43-7.24,9.34-4.6,2.51-9.32-.07-11.37-4.46-3.35-7.15-1.41-15.25-2.59-22.77-1-6.44-4.11-14.48-11.3-16-3.94-.82-7.63.83-10.83,3-2,1.36-3.93,3.14-6.21,4-2.1.84-8.86.89-7.46-3.32L88,22.72C102.08,26,108,43.93,100.82,55.85c-.43.71.6,1.55,1.17.91Z"/></g></g></svg>